<mxfile host="app.diagrams.net" modified="2021-01-01T10:37:01.448Z" agent="5.0 (Windows NT 10.0; Win64; x64) AppleWebKit/537.36 (KHTML, like Gecko) Chrome/87.0.4280.88 Safari/537.36" etag="kz-mSX6C6TKLNizwMOF0" version="14.1.1" type="github">
  <diagram id="GIAdPq7uxsLHTISDpYCu" name="Page-1">
    <mxGraphModel dx="868" dy="482" grid="1" gridSize="10" guides="1" tooltips="1" connect="1" arrows="1" fold="1" page="1" pageScale="1" pageWidth="850" pageHeight="1100" math="0" shadow="0">
      <root>
        <mxCell id="0" />
        <mxCell id="1" parent="0" />
        <mxCell id="HG44vMQYZL6i5QNaDtSO-16" style="edgeStyle=none;rounded=0;orthogonalLoop=1;jettySize=auto;html=1;entryX=0;entryY=0.5;entryDx=0;entryDy=0;endArrow=none;endFill=0;" edge="1" parent="1" source="HG44vMQYZL6i5QNaDtSO-12" target="HG44vMQYZL6i5QNaDtSO-13">
          <mxGeometry relative="1" as="geometry" />
        </mxCell>
        <mxCell id="HG44vMQYZL6i5QNaDtSO-17" style="edgeStyle=none;rounded=0;orthogonalLoop=1;jettySize=auto;html=1;entryX=0;entryY=0.5;entryDx=0;entryDy=0;endArrow=none;endFill=0;" edge="1" parent="1" source="HG44vMQYZL6i5QNaDtSO-12" target="HG44vMQYZL6i5QNaDtSO-14">
          <mxGeometry relative="1" as="geometry" />
        </mxCell>
        <mxCell id="HG44vMQYZL6i5QNaDtSO-12" value="User" style="shape=umlActor;verticalLabelPosition=bottom;verticalAlign=top;html=1;" vertex="1" parent="1">
          <mxGeometry x="90" y="70" width="30" height="60" as="geometry" />
        </mxCell>
        <mxCell id="HG44vMQYZL6i5QNaDtSO-13" value="Create Note" style="ellipse;whiteSpace=wrap;html=1;" vertex="1" parent="1">
          <mxGeometry x="200" y="50" width="100" height="30" as="geometry" />
        </mxCell>
        <mxCell id="HG44vMQYZL6i5QNaDtSO-14" value="Edit Note" style="ellipse;whiteSpace=wrap;html=1;" vertex="1" parent="1">
          <mxGeometry x="200" y="120" width="100" height="30" as="geometry" />
        </mxCell>
        <mxCell id="HG44vMQYZL6i5QNaDtSO-18" value="Attach Photo" style="ellipse;whiteSpace=wrap;html=1;" vertex="1" parent="1">
          <mxGeometry x="370" y="50" width="105" height="30" as="geometry" />
        </mxCell>
        <mxCell id="HG44vMQYZL6i5QNaDtSO-20" value="Add handwritten sketch" style="ellipse;whiteSpace=wrap;html=1;" vertex="1" parent="1">
          <mxGeometry x="360" y="120" width="140" height="30" as="geometry" />
        </mxCell>
        <mxCell id="HG44vMQYZL6i5QNaDtSO-32" style="edgeStyle=none;rounded=0;orthogonalLoop=1;jettySize=auto;html=1;startArrow=none;startFill=0;endArrow=none;endFill=0;" edge="1" parent="1" source="HG44vMQYZL6i5QNaDtSO-28" target="HG44vMQYZL6i5QNaDtSO-29">
          <mxGeometry relative="1" as="geometry" />
        </mxCell>
        <mxCell id="HG44vMQYZL6i5QNaDtSO-28" value="User" style="shape=umlActor;verticalLabelPosition=bottom;verticalAlign=top;html=1;" vertex="1" parent="1">
          <mxGeometry x="90" y="280" width="30" height="60" as="geometry" />
        </mxCell>
        <mxCell id="HG44vMQYZL6i5QNaDtSO-29" value="Create Note" style="ellipse;whiteSpace=wrap;html=1;" vertex="1" parent="1">
          <mxGeometry x="180" y="240" width="110" height="30" as="geometry" />
        </mxCell>
        <mxCell id="HG44vMQYZL6i5QNaDtSO-36" style="edgeStyle=none;rounded=0;orthogonalLoop=1;jettySize=auto;html=1;entryX=0;entryY=0.5;entryDx=0;entryDy=0;startArrow=none;startFill=0;endArrow=classic;endFill=1;dashed=1;" edge="1" parent="1" source="HG44vMQYZL6i5QNaDtSO-30" target="HG44vMQYZL6i5QNaDtSO-35">
          <mxGeometry relative="1" as="geometry" />
        </mxCell>
        <mxCell id="HG44vMQYZL6i5QNaDtSO-37" value="&lt;font style=&quot;font-size: 8px&quot;&gt;&amp;lt;&amp;lt;includes&amp;gt;&amp;gt;&lt;/font&gt;" style="edgeLabel;html=1;align=center;verticalAlign=middle;resizable=0;points=[];" vertex="1" connectable="0" parent="HG44vMQYZL6i5QNaDtSO-36">
          <mxGeometry x="-0.2564" relative="1" as="geometry">
            <mxPoint x="6.52" y="-12.8" as="offset" />
          </mxGeometry>
        </mxCell>
        <mxCell id="HG44vMQYZL6i5QNaDtSO-30" value="Create Private Note" style="ellipse;whiteSpace=wrap;html=1;" vertex="1" parent="1">
          <mxGeometry x="170" y="350" width="130" height="30" as="geometry" />
        </mxCell>
        <mxCell id="HG44vMQYZL6i5QNaDtSO-35" value="Protect with password" style="ellipse;whiteSpace=wrap;html=1;" vertex="1" parent="1">
          <mxGeometry x="380" y="330" width="130" height="30" as="geometry" />
        </mxCell>
        <mxCell id="HG44vMQYZL6i5QNaDtSO-38" style="edgeStyle=none;rounded=0;orthogonalLoop=1;jettySize=auto;html=1;entryX=0;entryY=0.5;entryDx=0;entryDy=0;startArrow=none;startFill=0;endArrow=classic;endFill=1;dashed=1;exitX=1;exitY=0.5;exitDx=0;exitDy=0;" edge="1" parent="1" source="HG44vMQYZL6i5QNaDtSO-13" target="HG44vMQYZL6i5QNaDtSO-18">
          <mxGeometry relative="1" as="geometry">
            <mxPoint x="300" y="62" as="sourcePoint" />
            <mxPoint x="389.21" y="50" as="targetPoint" />
          </mxGeometry>
        </mxCell>
        <mxCell id="HG44vMQYZL6i5QNaDtSO-39" value="&lt;font style=&quot;font-size: 8px&quot;&gt;&amp;lt;&amp;lt;includes&amp;gt;&amp;gt;&lt;/font&gt;" style="edgeLabel;html=1;align=center;verticalAlign=middle;resizable=0;points=[];" vertex="1" connectable="0" parent="HG44vMQYZL6i5QNaDtSO-38">
          <mxGeometry x="-0.2564" relative="1" as="geometry">
            <mxPoint x="6.52" y="-12.8" as="offset" />
          </mxGeometry>
        </mxCell>
        <mxCell id="HG44vMQYZL6i5QNaDtSO-40" style="edgeStyle=none;rounded=0;orthogonalLoop=1;jettySize=auto;html=1;entryX=0;entryY=0.5;entryDx=0;entryDy=0;startArrow=none;startFill=0;endArrow=classic;endFill=1;dashed=1;exitX=1;exitY=0.5;exitDx=0;exitDy=0;" edge="1" parent="1" source="HG44vMQYZL6i5QNaDtSO-14" target="HG44vMQYZL6i5QNaDtSO-20">
          <mxGeometry relative="1" as="geometry">
            <mxPoint x="310.7935461298182" y="377.30433846485266" as="sourcePoint" />
            <mxPoint x="400" y="365" as="targetPoint" />
          </mxGeometry>
        </mxCell>
        <mxCell id="HG44vMQYZL6i5QNaDtSO-41" value="&lt;font style=&quot;font-size: 8px&quot;&gt;&amp;lt;&amp;lt;includes&amp;gt;&amp;gt;&lt;/font&gt;" style="edgeLabel;html=1;align=center;verticalAlign=middle;resizable=0;points=[];" vertex="1" connectable="0" parent="HG44vMQYZL6i5QNaDtSO-40">
          <mxGeometry x="-0.2564" relative="1" as="geometry">
            <mxPoint x="6.52" y="-12.8" as="offset" />
          </mxGeometry>
        </mxCell>
        <mxCell id="HG44vMQYZL6i5QNaDtSO-42" style="edgeStyle=none;rounded=0;orthogonalLoop=1;jettySize=auto;html=1;entryX=0.5;entryY=1;entryDx=0;entryDy=0;startArrow=none;startFill=0;endArrow=classic;endFill=1;dashed=1;exitX=1;exitY=0;exitDx=0;exitDy=0;" edge="1" parent="1" source="HG44vMQYZL6i5QNaDtSO-14" target="HG44vMQYZL6i5QNaDtSO-18">
          <mxGeometry relative="1" as="geometry">
            <mxPoint x="320.7935461298182" y="387.30433846485266" as="sourcePoint" />
            <mxPoint x="410" y="375" as="targetPoint" />
          </mxGeometry>
        </mxCell>
        <mxCell id="HG44vMQYZL6i5QNaDtSO-43" value="&lt;font style=&quot;font-size: 8px&quot;&gt;&amp;lt;&amp;lt;includes&amp;gt;&amp;gt;&lt;/font&gt;" style="edgeLabel;html=1;align=center;verticalAlign=middle;resizable=0;points=[];" vertex="1" connectable="0" parent="HG44vMQYZL6i5QNaDtSO-42">
          <mxGeometry x="-0.2564" relative="1" as="geometry">
            <mxPoint x="53.269999999999996" y="-7.760000000000002" as="offset" />
          </mxGeometry>
        </mxCell>
        <mxCell id="HG44vMQYZL6i5QNaDtSO-44" style="edgeStyle=none;rounded=0;orthogonalLoop=1;jettySize=auto;html=1;entryX=0.229;entryY=0.033;entryDx=0;entryDy=0;startArrow=none;startFill=0;endArrow=classic;endFill=1;dashed=1;exitX=1;exitY=1;exitDx=0;exitDy=0;entryPerimeter=0;" edge="1" parent="1" source="HG44vMQYZL6i5QNaDtSO-13" target="HG44vMQYZL6i5QNaDtSO-20">
          <mxGeometry relative="1" as="geometry">
            <mxPoint x="330.7935461298182" y="397.30433846485266" as="sourcePoint" />
            <mxPoint x="420" y="385" as="targetPoint" />
          </mxGeometry>
        </mxCell>
        <mxCell id="HG44vMQYZL6i5QNaDtSO-45" value="&lt;font style=&quot;font-size: 8px&quot;&gt;&amp;lt;&amp;lt;includes&amp;gt;&amp;gt;&lt;/font&gt;" style="edgeLabel;html=1;align=center;verticalAlign=middle;resizable=0;points=[];" vertex="1" connectable="0" parent="HG44vMQYZL6i5QNaDtSO-44">
          <mxGeometry x="-0.2564" relative="1" as="geometry">
            <mxPoint x="6.52" y="-12.8" as="offset" />
          </mxGeometry>
        </mxCell>
        <mxCell id="HG44vMQYZL6i5QNaDtSO-47" style="edgeStyle=none;rounded=0;orthogonalLoop=1;jettySize=auto;html=1;entryX=0.5;entryY=1;entryDx=0;entryDy=0;startArrow=none;startFill=0;endArrow=classic;endFill=1;dashed=1;exitX=0.5;exitY=0;exitDx=0;exitDy=0;" edge="1" parent="1" source="HG44vMQYZL6i5QNaDtSO-30" target="HG44vMQYZL6i5QNaDtSO-29">
          <mxGeometry relative="1" as="geometry">
            <mxPoint x="300.7935461298182" y="367.30433846485266" as="sourcePoint" />
            <mxPoint x="390" y="355" as="targetPoint" />
          </mxGeometry>
        </mxCell>
        <mxCell id="HG44vMQYZL6i5QNaDtSO-48" value="&lt;font style=&quot;font-size: 8px&quot;&gt;&amp;lt;&amp;lt;extends&amp;gt;&amp;gt;&lt;/font&gt;" style="edgeLabel;html=1;align=center;verticalAlign=middle;resizable=0;points=[];" vertex="1" connectable="0" parent="HG44vMQYZL6i5QNaDtSO-47">
          <mxGeometry x="-0.2564" relative="1" as="geometry">
            <mxPoint x="25" y="-10" as="offset" />
          </mxGeometry>
        </mxCell>
      </root>
    </mxGraphModel>
  </diagram>
</mxfile>
